<svg xmlns="http://www.w3.org/2000/svg" xmlns:xlink="http://www.w3.org/1999/xlink" viewBox="0 0 750 250" width="946" height="310"><style>tspan { white-space:pre }</style>
<defs>
<g id="eight">
<path id="Layer" fill="#b599f1" d="M130 0.36C155.24 0.25 180.96 6.3 202.77 19.22C221.51 30.1 237.43 46.13 247.73 65.24C255.18 79.42 259.62 94.91 259.51 111C259.53 134.07 252.79 157.04 240.58 176.59C226.75 199.35 206.01 218.3 184 233.02C180.33 235.57 176.35 237.26 172.4 239.3C163.78 243.69 155.1 247.98 146.46 252.33C132.77 259.48 118.89 265.47 105.86 273.88C88.02 285.21 70.47 300.22 59.5 318.49C51.82 330.97 47.5 345.33 47.63 360.01C47.97 372.39 54.38 384.42 62.4 393.57C75.18 408.12 92.86 417.4 111.81 420.91C128.91 423.94 147.2 422.79 163.51 416.65C178.06 411.4 191.29 402 200.74 389.73C206.98 381.47 211.76 371.46 212.32 361C212.85 342.34 205.99 324.87 194.89 310.11C180.56 291.11 159.99 276.19 139.09 265.17C151.14 259.23 163.04 252.98 175.06 246.98C179.65 244.73 184.13 242.14 188.87 240.22C194.31 244.41 199.91 248.35 205.1 252.87C221.19 266.54 235.1 282.4 245.01 301.13C255.45 320.87 260.72 343.69 259.24 366.02C257.9 382.02 251.8 397.62 243.01 410.98C228.22 433.68 205.68 450.86 180.48 460.51C157.25 469.39 131.5 471.76 106.97 467.85C83.52 464.17 61.08 454.32 42.66 439.32C24.54 424.71 9.79 404.31 3.58 381.74C-0.37 367.99 -0.16 354 2 339.97C5.77 315.65 16.97 293.5 32.82 274.84C42.51 263.55 53.46 253.19 65.54 244.48C76.77 237.21 88.82 231.05 100.4 224.3C112.1 218.37 123.8 212.41 135.57 206.63C142.51 203.02 149.45 199.28 155.94 194.91C173.16 183.78 189.83 169.18 200.51 151.5C208.76 137.95 213.43 121.93 212.13 106.01C209.68 86.51 195.86 69.5 179.22 59.8C162.74 50.1 142.9 46.64 123.98 47.65C103.26 48.81 83.07 56.58 67.84 70.85C58 79.98 49.84 92.41 47.91 105.9C47.02 114.42 48.37 123.3 50.64 131.53C56.33 150.57 68.31 165.97 82.99 179.02C94.7 189.3 107.9 198.07 121.78 205.14C105.51 213.78 89.09 222.14 72.78 230.72C52.81 217.16 34.55 199.95 21.35 179.65C8.92 160.73 1.5 138.66 0.61 115.99C-0.07 103.19 1.93 90.69 6.54 78.74C15.18 56.11 32.16 36.53 52.23 23.2C75.16 8.01 102.54 0.25 130 0.36Z" />
</g>
<g id="infinite">
<path fill="#444" d="M307.81 151L315.04 151L315.04 87.19L307.81 87.19ZM352.22 101.87C345.45 101.87 339.24 105.58 336.46 110.69L336.46 102.98L329.5 102.98L329.5 151L336.46 151L336.46 120.44C336.46 113.75 343.23 108.09 351.29 108.09C358.34 108.09 363.26 113.57 363.26 121.37L363.26 151L370.21 151L370.21 120.44C370.21 109.58 362.79 101.87 352.22 101.87ZM395.15 96.39C395.15 92.86 397.56 90.35 400.35 90.35C402.48 90.35 404.33 91.18 405.35 92.3L408.78 87.19C406.28 85.24 403.13 84.13 399.88 84.13C393.02 84.13 388.2 89.23 388.2 96.39L388.2 102.98L380.69 102.98L380.69 109.2L388.2 109.2L388.2 151L395.15 151L395.15 109.2L406.93 109.2L406.93 102.98L395.15 102.98ZM420.28 94.25C422.78 94.25 424.82 92.11 424.82 89.61C424.82 87.19 422.78 85.05 420.28 85.05C417.68 85.05 415.64 87.19 415.64 89.61C415.64 92.11 417.68 94.25 420.28 94.25ZM416.76 151L423.71 151L423.71 102.98L416.76 102.98ZM460.52 101.87C453.75 101.87 447.54 105.58 444.76 110.69L444.76 102.98L437.81 102.98L437.81 151L444.76 151L444.76 120.44C444.76 113.75 451.53 108.09 459.6 108.09C466.64 108.09 471.56 113.57 471.56 121.37L471.56 151L478.51 151L478.51 120.44C478.51 109.58 471.09 101.87 460.52 101.87ZM496.04 94.25C498.54 94.25 500.58 92.11 500.58 89.61C500.58 87.19 498.54 85.05 496.04 85.05C493.44 85.05 491.4 87.19 491.4 89.61C491.4 92.11 493.44 94.25 496.04 94.25ZM492.51 151L499.47 151L499.47 102.98L492.51 102.98ZM534.52 143.94C533.5 145.06 531.64 145.89 529.51 145.89C526.73 145.89 524.32 143.38 524.32 139.85L524.32 109.2L536.09 109.2L536.09 102.98L524.32 102.98L524.32 89.79L517.36 89.79L517.36 102.98L509.85 102.98L509.85 109.2L517.36 109.2L517.36 139.85C517.36 147.01 522.19 152.11 529.05 152.11C532.29 152.11 535.45 151 537.95 149.05ZM569.38 145.89C559.92 145.89 553.34 139.02 552.32 129.64L591.54 129.64C591.54 112.83 583.29 101.87 568.83 101.87C555.94 101.87 545.18 112.55 545.18 126.85C545.18 141.62 556.68 152.11 569.48 152.11C576.15 152.11 584.59 149.24 588.76 144.68L584.5 140.13C581.53 143.38 575.04 145.89 569.38 145.89ZM569.1 108.09C578.65 108.09 583.75 114.78 584.68 123.41L552.41 123.41C553.71 114.13 560.57 108.09 569.1 108.09Z" />
</g>
<g id="marketcap">
<path fill="#444" d="M309.61 239L309.61 171.29L331.8 171.29L347.19 207.53L362.67 171.29L384.81 171.29L384.81 239L368.33 239L368.33 189.48L352.76 225.98L341.71 225.98L326.14 189.48L326.14 239L309.61 239ZM432.31 216.14L423.89 216.14Q418.82 216.14 416.23 217.87Q413.7 219.59 413.7 222.95Q413.7 226.03 415.74 227.8Q417.82 229.52 421.49 229.52Q426.06 229.52 429.18 226.26Q432.31 222.95 432.31 218L432.31 216.14ZM448.65 210.02L448.65 239L432.31 239L432.31 231.47Q429.05 236.1 424.97 238.23Q420.9 240.32 415.06 240.32Q407.18 240.32 402.24 235.73Q397.35 231.11 397.35 223.76Q397.35 214.83 403.47 210.65Q409.62 206.48 422.75 206.48L432.31 206.48L432.31 205.21Q432.31 201.36 429.27 199.59Q426.24 197.78 419.81 197.78Q414.61 197.78 410.12 198.82Q405.64 199.86 401.79 201.95L401.79 189.57Q407 188.3 412.25 187.66Q417.5 186.98 422.75 186.98Q436.47 186.98 442.54 192.42Q448.65 197.82 448.65 210.02ZM501.35 187.34L501.4 202.04Q499.27 201.04 497.14 200.59Q495.06 200.09 492.93 200.09Q486.68 200.09 483.29 204.12Q479.94 208.12 479.94 215.6L479.94 239L463.73 239L463.73 188.21L479.94 188.21L479.94 196.55Q483.06 191.56 487.09 189.29Q491.17 186.98 496.83 186.98Q497.64 186.98 498.59 187.07Q499.54 187.12 501.35 187.34ZM509.46 239L509.46 168.43L525.67 168.43L525.67 206.85L544.32 188.21L563.15 188.21L538.39 211.52L565.1 239L545.45 239L525.67 217.82L525.67 239L509.46 239ZM619.25 213.47L619.25 218.09L581.36 218.09Q581.94 223.81 585.48 226.66Q589.01 229.52 595.35 229.52Q600.46 229.52 605.8 228.02Q611.19 226.48 616.85 223.4L616.85 235.92Q611.1 238.09 605.35 239.23Q599.6 240.32 593.85 240.32Q580.09 240.32 572.44 233.33Q564.83 226.3 564.83 213.65Q564.83 201.22 572.3 194.1Q579.82 186.98 592.95 186.98Q604.9 186.98 612.05 194.19Q619.25 201.4 619.25 213.47ZM581.54 208.07L602.59 208.07Q602.59 203.44 599.87 200.63Q597.2 197.78 592.86 197.78Q588.15 197.78 585.2 200.45Q582.26 203.08 581.54 208.07ZM633.02 173.78L649.22 173.78L649.22 188.21L665.93 188.21L665.93 199.82L649.22 199.82L649.22 221.36Q649.22 224.9 650.63 226.17Q652.03 227.39 656.2 227.39L664.53 227.39L664.53 239L650.63 239Q641.03 239 637 235.01Q633.02 230.97 633.02 221.36L633.02 199.82L624.96 199.82L624.96 188.21L633.02 188.21L633.02 173.78ZM762.46 221.27L762.46 235.28Q757.66 237.78 752.45 239.05Q747.25 240.32 741.59 240.32Q724.7 240.32 714.83 230.88Q704.96 221.4 704.96 205.21Q704.96 188.98 714.83 179.54Q724.7 170.06 741.59 170.06Q747.25 170.06 752.45 171.33Q757.66 172.6 762.46 175.1L762.46 189.11Q757.61 185.8 752.91 184.26Q748.2 182.72 742.99 182.72Q733.66 182.72 728.32 188.7Q722.98 194.69 722.98 205.21Q722.98 215.69 728.32 221.68Q733.66 227.66 742.99 227.66Q748.2 227.66 752.91 226.12Q757.61 224.58 762.46 221.27ZM807.33 216.14L798.91 216.14Q793.84 216.14 791.25 217.87Q788.72 219.59 788.72 222.95Q788.72 226.03 790.76 227.8Q792.84 229.52 796.51 229.52Q801.08 229.52 804.2 226.26Q807.33 222.95 807.33 218L807.33 216.14ZM823.67 210.02L823.67 239L807.33 239L807.33 231.47Q804.07 236.1 799.99 238.23Q795.92 240.32 790.08 240.32Q782.2 240.32 777.26 235.73Q772.37 231.11 772.37 223.76Q772.37 214.83 778.49 210.65Q784.64 206.48 797.77 206.48L807.33 206.48L807.33 205.21Q807.33 201.36 804.29 199.59Q801.26 197.78 794.83 197.78Q789.62 197.78 785.14 198.82Q780.66 199.86 776.81 201.95L776.81 189.57Q782.02 188.3 787.27 187.66Q792.52 186.98 797.77 186.98Q811.49 186.98 817.56 192.42Q823.67 197.82 823.67 210.02ZM854.96 231.65L854.96 258.32L838.75 258.32L838.75 188.21L854.96 188.21L854.96 195.64Q858.31 191.2 862.38 189.11Q866.46 186.98 871.75 186.98Q881.13 186.98 887.15 194.46Q893.17 201.9 893.17 213.65Q893.17 225.39 887.15 232.88Q881.13 240.32 871.75 240.32Q866.46 240.32 862.38 238.23Q858.31 236.1 854.96 231.65ZM865.73 198.77Q860.53 198.77 857.72 202.63Q854.96 206.44 854.96 213.65Q854.96 220.86 857.72 224.71Q860.53 228.52 865.73 228.52Q870.94 228.52 873.66 224.71Q876.42 220.9 876.42 213.65Q876.42 206.39 873.66 202.58Q870.94 198.77 865.73 198.77Z" />
</g>
</defs>

<use x="10" y="0" transform="scale(0.5)" xlink:href="#eight" />
<use x="-140" y="-50" xlink:href="#infinite" />
<use x="-145" y="-50" xlink:href="#marketcap" />
</svg>
